<svg width="1170" height="516" viewBox="0 0 1170 516" fill="none" xmlns="http://www.w3.org/2000/svg">
<path d="M585 124.5H550.5L535 110.5V83.4999M585 57.5H550.5L535 72.9999V95.4999" stroke="black" stroke-width="2"/>
<path d="M18 30L27.5 70.5C451.5 84 467.5 163 487.5 202.5L503 514.5H585M18 30H1V1H66.5V22M18 30H66.5M66.5 30L585 32M66.5 30V22M585 46H511L499 58V115L541 137.5H585M585 16.5H537V22H66.5M489 58V115L471.634 124.5H453.634L354 69.5V58L365.5 46H477L489 58Z" stroke="black" stroke-width="2"/>
<circle cx="435.5" cy="78.5" r="24.5" stroke="black" stroke-width="2"/>
<path d="M585 124.5H619.5L635 110.5V83.4999M585 57.5H619.5L635 72.9999V95.4999" stroke="black" stroke-width="2"/>
<path d="M1152 30L1142.5 70.5C718.5 84 702.5 163 682.5 202.5L667 514.5H585M1152 30H1169V1H1103.5V22M1152 30H1103.5M1103.5 30L585 32M1103.5 30V22M585 46H659L671 58V115L629 137.5H585M585 16.5H633V22H1103.5M681 58V115L698.366 124.5H716.366L816 69.5V58L804.5 46H693L681 58Z" stroke="black" stroke-width="2"/>
<circle cx="25.5" cy="25.5" r="24.5" transform="matrix(-1 0 0 1 760 53)" stroke="black" stroke-width="2"/>
</svg>
